<svg viewBox="0 0 23 24" fill="none" xmlns="http://www.w3.org/2000/svg">
    <path d="M10.9964 0.0045757C9.71958 0.0908991 8.82937 0.259949 7.7773 0.61963C6.56518 1.03506 5.38363 1.6717 4.38731 2.44861C3.8442 2.87303 3.08887 3.59779 2.67523 4.09415C1.14479 5.93032 0.26717 8.05423 0.0333779 10.4875C-0.00618701 10.8903 -0.0115822 11.973 0.0225874 12.3668C0.112508 13.3919 0.292348 14.2623 0.598077 15.1723C1.31384 17.2926 2.5979 19.1342 4.31538 20.5046C5.96991 21.8228 7.95355 22.6573 10.0703 22.9216C10.6296 22.9918 10.8346 23.0026 11.509 23.0026C12.178 23.0026 12.5017 22.9828 13.0197 22.9126C15.1957 22.6195 17.2261 21.7203 18.9454 20.2888C19.2961 19.9974 20.0388 19.2565 20.3248 18.913C21.8552 17.075 22.7328 14.9529 22.9666 12.5197C23.0062 12.1168 23.0116 11.0342 22.9774 10.6403C22.9073 9.83825 22.7832 9.14047 22.5872 8.43729C22.1376 6.82232 21.3696 5.36022 20.278 4.04919C19.9939 3.70749 19.2493 2.96295 18.9094 2.6788C17.0769 1.15196 14.9278 0.263546 12.5251 0.036947C12.2481 0.0117693 11.223 -0.00981153 10.9964 0.0045757ZM12.2859 2.30473C13.7012 2.43422 14.9529 2.83526 16.1669 3.54204C17.7081 4.44124 18.9904 5.81882 19.7727 7.4122C20.2672 8.41751 20.5442 9.36347 20.6827 10.5198C20.7276 10.8831 20.7366 11.8776 20.7006 12.2697C20.5891 13.48 20.2996 14.5231 19.7816 15.577C18.8878 17.3933 17.3916 18.8914 15.5914 19.7762C14.5861 20.2708 13.6401 20.5477 12.4837 20.6862C12.1204 20.7312 11.1259 20.7402 10.7339 20.7042C9.29696 20.5729 8.05246 20.1755 6.83314 19.4651C4.75059 18.2494 3.17879 16.1866 2.57812 13.8865C2.36771 13.0736 2.28498 12.4262 2.28678 11.5665C2.28678 10.6098 2.40727 9.7807 2.67164 8.90128C3.23993 7.01475 4.37472 5.36022 5.91416 4.16788C6.55979 3.66792 7.27555 3.25429 8.0111 2.95576C8.83297 2.62125 9.75015 2.39465 10.6008 2.31552C10.7141 2.30473 10.8364 2.29215 10.8706 2.29035C11.0702 2.27056 12.0251 2.28135 12.2859 2.30473Z" fill="#121116"/>
    <path d="M8.94656 7.46074C8.83865 7.51649 8.76851 7.62619 8.69298 7.85639L8.63184 8.04162L8.63543 9.1926C8.63723 9.82564 8.64802 11.4118 8.65881 12.7175C8.67859 14.9223 8.68219 15.1022 8.71276 15.2352C8.83326 15.755 9.03468 15.8503 9.62276 15.6615C9.64434 15.6543 11.0147 14.8684 12.6693 13.9134C15.4874 12.2877 15.6852 12.1708 15.7985 12.0575C15.9639 11.8938 16.0395 11.7445 16.0287 11.5989C16.0179 11.4532 15.9549 11.3363 15.8075 11.1888C15.687 11.0683 15.5539 10.9892 12.6423 9.29871C10.5094 8.05961 9.5688 7.52188 9.48608 7.49671C9.21452 7.41038 9.06525 7.40139 8.94656 7.46074Z" fill="#121116"/>
</svg>
