<svg viewBox="0 0 66 66" fill="none" xmlns="http://www.w3.org/2000/svg">
<path d="M41.3238 32.5061L63.1593 54.3415C65.6474 56.8296 65.6474 60.6646 63.1593 63.1527C62.0115 64.3005 60.2864 65.0702 58.7537 65.0702C57.2211 65.0702 55.496 64.3072 54.3482 63.1527L32.5127 41.3172L10.6772 63.1527C9.52938 64.3005 7.80431 65.0702 6.27164 65.0702C4.73898 65.0702 3.01391 64.3072 1.86607 63.1527C-0.622022 60.6646 -0.622022 56.8296 1.86607 54.3415L23.7015 32.5061L1.86607 10.6772C-0.622022 8.1825 -0.622022 4.35416 1.86607 1.86607C4.35416 -0.622022 8.18913 -0.622022 10.6772 1.86607L32.5127 23.7015L54.3482 1.86607C56.8363 -0.622022 60.6712 -0.622022 63.1593 1.86607C65.6474 4.35416 65.6474 8.18913 63.1593 10.6772L41.3238 32.5061Z" fill="#72777C"/>
</svg>
