<svg xmlns="http://www.w3.org/2000/svg" viewBox="0 0 9.845 12.176">
  <g id="delete-button-svgrepo-com" transform="translate(-46.155 0.003)">
    <g id="Group_1" data-name="Group 1" transform="translate(46.155)">
      <path id="Path_1" data-name="Path 1" d="M54.608,1.458H52.714a1.647,1.647,0,0,0-3.273,0H47.546a1.392,1.392,0,0,0-1.391,1.391V2.92a1.392,1.392,0,0,0,.879,1.292v6.57a1.392,1.392,0,0,0,1.391,1.391h5.3a1.392,1.392,0,0,0,1.391-1.391V4.213A1.392,1.392,0,0,0,56,2.921V2.849a1.392,1.392,0,0,0-1.392-1.391ZM51.077.66a.99.99,0,0,1,.97.8h-1.94a.99.99,0,0,1,.97-.8Zm3.384,10.123a.732.732,0,0,1-.731.731H48.425a.732.732,0,0,1-.731-.731V4.311h6.767Zm.879-7.862a.732.732,0,0,1-.731.731H47.546a.732.732,0,0,1-.731-.731V2.849a.732.732,0,0,1,.731-.731h7.063a.732.732,0,0,1,.731.731V2.92Z" transform="translate(-46.155)" fill="#f33"/>
      <path id="Path_2" data-name="Path 2" d="M158.4,253.944a.33.33,0,0,0,.33-.33V249.9a.33.33,0,1,0-.66,0v3.713a.33.33,0,0,0,.33.331Z" transform="translate(-155.251 -243.273)" fill="#f33"/>
      <path id="Path_3" data-name="Path 3" d="M228.475,253.944a.33.33,0,0,0,.33-.33V249.9a.33.33,0,0,0-.66,0v3.713a.33.33,0,0,0,.33.331Z" transform="translate(-223.553 -243.273)" fill="#f33"/>
      <path id="Path_4" data-name="Path 4" d="M298.544,253.944a.33.33,0,0,0,.33-.33V249.9a.33.33,0,0,0-.66,0v3.713a.33.33,0,0,0,.33.331Z" transform="translate(-291.854 -243.273)" fill="#f33"/>
    </g>
  </g>
</svg>
