<svg viewBox="0 0 97 123" fill="none" xmlns="http://www.w3.org/2000/svg">
<path fill-rule="evenodd" clip-rule="evenodd" d="M2.892 56.036H11.851V54.961V37.117C11.851 26.912 16.028 17.633 22.749 10.91V10.901C29.473 4.177 38.754 0 48.966 0C59.17 0 68.449 4.177 75.173 10.901L75.183 10.91C81.904 17.633 86.081 26.912 86.081 37.117V54.961V56.036H93.217C94.807 56.036 96.109 57.338 96.109 58.927V119.989C96.109 121.578 94.807 122.88 93.217 122.88H2.892C1.302 122.88 0 121.578 0 119.989V58.927C0 57.338 1.302 56.036 2.892 56.036ZM26.271 56.036H71.658V54.961V36.911C71.658 30.671 69.104 24.994 64.996 20.881L64.991 20.885C60.88 16.771 55.204 14.216 48.966 14.216C42.725 14.216 37.049 16.77 32.933 20.881C28.824 24.994 26.271 30.671 26.271 36.911V54.962V56.036ZM49.149 89.448L53.73 110.587L41.173 110.64L44.858 89.217C41.427 88.117 38.94 84.902 38.94 81.106C38.94 76.405 42.75 72.595 47.453 72.595C52.151 72.595 55.964 76.405 55.964 81.106C55.964 85.226 53.036 88.663 49.149 89.448Z" fill="white"/>
</svg>
