<svg viewBox="0 0 310 311" fill="none" xmlns="http://www.w3.org/2000/svg">
<path fill-rule="evenodd" clip-rule="evenodd" d="M308.111 220.964C296.525 244.18 279.56 264.287 258.633 279.608C237.705 294.928 213.421 305.019 187.806 309.037C162.19 313.055 135.986 310.885 111.379 302.707C86.7716 294.53 64.4747 280.582 46.3478 262.026C28.2208 243.471 14.7893 220.847 7.1735 196.041C-0.442301 171.234 -2.02161 144.965 2.56729 119.423C7.15619 93.8819 17.7803 69.8089 33.5534 49.2121C49.3266 28.6153 69.7916 12.0919 93.2414 1.01991C100.676 -2.44757 108.212 3.32312 104.545 12.3335C89.1674 39.2437 82.9791 70.4398 86.9189 101.189C90.8587 131.938 104.712 160.562 126.376 182.717C148.04 204.873 176.333 219.352 206.963 223.957C237.593 228.561 268.887 223.041 296.099 208.233L297.338 207.55C298.968 206.685 300.832 206.366 302.657 206.64C304.481 206.914 306.17 207.767 307.474 209.073C308.779 210.378 309.631 212.068 309.904 213.894C310.178 215.72 309.86 217.586 308.996 219.218L308.111 220.964V220.964ZM233.79 188.998H232.627C232.387 178.481 228.096 168.464 220.651 161.04C213.205 153.616 203.181 149.359 192.672 149.16V147.843C197.878 147.858 203.032 146.806 207.816 144.751C212.6 142.696 216.913 139.683 220.489 135.897C224.259 132.308 227.26 127.989 229.312 123.203C231.364 118.417 232.423 113.264 232.425 108.056H233.714C233.706 113.266 234.76 118.422 236.812 123.209C238.865 127.996 241.872 132.314 245.65 135.897C249.23 139.679 253.544 142.689 258.327 144.743C263.11 146.797 268.262 147.852 273.466 147.843V149.134C263.007 149.417 253.056 153.712 245.671 161.132C238.286 168.551 234.033 178.528 233.79 188.998V188.998ZM259.305 71.0781H258.623C258.635 68.3261 258.083 65.6009 256.999 63.0714C255.916 60.5418 254.326 58.2619 252.326 56.373C250.445 54.3778 248.175 52.7894 245.657 51.7055C243.139 50.6217 240.426 50.0653 237.684 50.0708V49.3874C240.429 49.3864 243.145 48.8221 245.663 47.7294C248.181 46.6368 250.449 45.0389 252.326 43.0346C254.315 41.143 255.899 38.8661 256.982 36.3425C258.064 33.8188 258.623 31.1011 258.623 28.3548H259.305C259.292 31.0938 259.835 33.8071 260.9 36.3304C261.965 38.8536 263.53 41.1344 265.501 43.0346C267.394 45.0288 269.673 46.6161 272.199 47.6996C274.725 48.7832 277.445 49.3402 280.193 49.3368V50.0202C277.441 50.0232 274.719 50.5882 272.193 51.6805C269.666 52.7729 267.389 54.3696 265.501 56.373C263.501 58.2619 261.911 60.5418 260.827 63.0714C259.744 65.6009 259.192 68.3261 259.204 71.0781H259.305ZM154.362 91.3262H153.325C153.343 87.1486 152.504 83.0118 150.859 79.1719C149.215 75.3321 146.801 71.8709 143.766 69.0027C140.884 65.9619 137.408 63.5477 133.553 61.9104C129.699 60.2731 125.549 59.4479 121.361 59.4861V58.4484C125.535 58.4647 129.668 57.6241 133.504 55.9786C137.34 54.333 140.798 51.9175 143.665 48.8812C146.696 46.0102 149.108 42.5485 150.752 38.7093C152.396 34.8701 153.237 30.7347 153.224 26.5577H154.261C154.242 30.733 155.079 34.8678 156.719 38.7071C158.358 42.5465 160.766 46.009 163.794 48.8812C166.665 51.9182 170.128 54.334 173.968 55.9794C177.809 57.6249 181.945 58.4652 186.123 58.4484V59.4861C181.945 59.4693 177.809 60.3096 173.968 61.9551C170.128 63.6006 166.665 66.0163 163.794 69.0533C160.766 71.9256 158.358 75.3881 156.719 79.2274C155.079 83.0667 154.242 87.2015 154.261 91.3768L154.362 91.3262Z" fill="white"/>
</svg>
