<svg viewBox="0 0 380 302" fill="none" xmlns="http://www.w3.org/2000/svg">
<rect x="138.898" y="285.989" width="102.222" height="15.6065" rx="7.80323" fill="#121116"/>
<rect x="297.303" y="145.985" width="82.3241" height="15.6065" rx="7.80323" transform="rotate(-20 297.303 145.985)" fill="#121116"/>
<rect x="266.479" y="107.93" width="82.3241" height="15.6065" rx="7.80323" transform="rotate(-40 266.479 107.93)" fill="#121116"/>
<rect x="227.854" y="86.9007" width="82.3241" height="15.6065" rx="7.80323" transform="rotate(-60 227.854 86.9007)" fill="#121116"/>
<rect x="5.33789" y="117.829" width="82.3241" height="15.6065" rx="7.80323" transform="rotate(20 5.33789 117.829)" fill="#121116"/>
<rect x="50.6089" y="55.0126" width="82.3241" height="15.6065" rx="7.80323" transform="rotate(40 50.6089 55.0126)" fill="#121116"/>
<rect x="111.056" y="15.6067" width="82.3241" height="15.6065" rx="7.80323" transform="rotate(60 111.056 15.6067)" fill="#121116"/>
<rect x="182.206" y="82.3241" width="82.3241" height="15.6065" rx="7.80323" transform="rotate(-90 182.206 82.3241)" fill="#121116"/>
<rect x="14.0459" y="181.425" width="351.535" height="15.6065" rx="7.80323" fill="#121116"/>
<rect x="71.3999" y="233.707" width="236.828" height="15.6065" rx="7.80323" fill="#121116"/>
<path fill-rule="evenodd" clip-rule="evenodd" d="M270.443 181.425C267.353 165.503 259.579 150.73 247.945 139.095C232.579 123.73 211.739 115.097 190.009 115.097C168.278 115.097 147.438 123.73 132.073 139.095C120.438 150.73 112.664 165.503 109.574 181.425L270.443 181.425ZM286.293 181.425C283.037 161.34 273.552 142.632 258.98 128.06C240.688 109.768 215.878 99.491 190.009 99.491C164.139 99.491 139.33 109.768 121.037 128.06C106.465 142.632 96.9799 161.34 93.7245 181.425C92.8933 186.553 92.4683 191.77 92.4683 197.031L287.549 197.031C287.549 191.77 287.124 186.553 286.293 181.425Z" fill="#121116"/>
</svg>
