<svg viewBox="0 0 339 290" fill="none" xmlns="http://www.w3.org/2000/svg">
<path d="M217.09 140.509C191.056 95.4589 192.923 42.0421 217.159 0.000149866C193.234 -0.0344241 168.998 5.91231 146.801 18.7393C98.9509 46.3985 73.6082 97.8791 76.8927 149.533C88.233 149.913 98.9855 153.958 107.629 161.15C115.823 156.586 124.847 154.269 134.286 154.269C159.421 154.269 181.133 171.211 187.944 194.825C205.681 200.287 218.162 216.606 218.162 235.829C218.162 255.917 204.263 272.685 185.628 277.456C219.061 285.166 255.364 280.845 287.448 262.313C309.645 249.486 326.932 231.473 338.86 210.729C290.283 210.659 243.124 185.559 217.09 140.509Z" fill="white"/>
<path d="M206.372 235.795C206.372 219.511 193.856 206.269 177.987 204.782C175.221 182.966 156.828 166.025 134.285 166.025C123.498 166.025 113.783 170.001 106.073 176.362C98.847 167.131 87.7488 161.115 75.1293 161.115C56.2865 161.115 40.6244 174.322 36.683 191.955C16.2152 193.407 0 210.279 0 231.162C0 252.909 17.6673 270.576 39.4144 270.576C44.0473 270.576 48.4382 269.643 52.5525 268.156C59.7439 278.01 71.257 284.475 84.3951 284.475C92.4163 284.475 99.8497 282.055 106.108 277.941C113.23 284.821 122.876 289.143 133.559 289.143C149.29 289.143 162.774 279.842 169.101 266.497C171.038 266.877 173.008 267.119 175.083 267.119C192.335 267.084 206.372 253.082 206.372 235.795Z" fill="white"/>
<path d="M292.289 157.969L297.924 145.591L311.27 143.24L301.278 134.043L303.145 120.594L291.321 127.302L279.116 121.355L281.847 134.7L272.409 144.45L285.893 146.006L292.289 157.969Z" fill="white"/>
<path d="M22.4385 124.743L32.0501 119.799L41.5579 124.916L39.8292 114.232L47.6084 106.764L36.9596 105.139L32.2575 95.4241L27.3826 105.07L16.6992 106.488L24.3746 114.094L22.4385 124.743Z" fill="white"/>
<path d="M240.635 100.679L244.991 108.873L248.864 100.368L258.026 98.7778L251.145 92.4854L252.425 83.2541L244.334 87.8525L235.967 83.7727L237.834 92.9003L231.369 99.6076L240.635 100.679Z" fill="white"/>
<path d="M284.751 76.3049L287.448 81.3182L289.834 76.1321L295.435 75.1294L291.217 71.2571L292.012 65.6216L287.033 68.4566L281.916 65.9327L283.057 71.5337L279.081 75.648L284.751 76.3049Z" fill="white"/>
<path d="M82.1135 42.3882L84.8103 47.4014L87.1613 42.2153L92.7969 41.1781L88.5788 37.3404L89.374 31.6702L84.3954 34.5053L79.2784 32.016L80.3848 37.5824L76.4434 41.6967L82.1135 42.3882Z" fill="white"/>
</svg>
