<svg viewBox="0 0 3584 868" fill="none" xmlns="http://www.w3.org/2000/svg">
<path d="M0 126.637C0 56.6971 56.6971 0 126.637 0H740.737C810.676 0 867.373 56.6971 867.373 126.637V740.737C867.373 810.676 810.676 867.373 740.737 867.373H126.637C56.6971 867.373 0 810.676 0 740.737V126.637Z" fill="#EF5812"/>
<path d="M432.821 617.858C534.057 617.858 616.125 535.79 616.125 434.554C616.125 333.318 534.057 251.25 432.821 251.25C331.585 251.25 249.517 333.318 249.517 434.554C249.517 535.79 331.585 617.858 432.821 617.858Z" fill="white"/>
<path d="M433.344 581.198C394.591 581.198 357.425 565.803 330.022 538.4C302.619 510.997 287.225 473.831 287.225 435.078C287.225 396.325 302.619 359.159 330.022 331.756C357.425 304.353 394.591 288.959 433.344 288.959V435.078V581.198Z" fill="#EF5812"/>
<path d="M447.484 145.982C447.484 138.172 441.153 131.841 433.344 131.841C425.534 131.841 419.203 138.172 419.203 145.982V203.591C419.203 211.401 425.534 217.732 433.344 217.732C441.153 217.732 447.484 211.401 447.484 203.591V145.982Z" fill="white"/>
<path d="M447.484 665.517C447.484 657.707 441.153 651.376 433.344 651.376C425.534 651.376 419.203 657.707 419.203 665.517V723.126C419.203 730.936 425.534 737.267 433.344 737.267C441.153 737.267 447.484 730.936 447.484 723.126V665.517Z" fill="white"/>
<path d="M646.896 240.527C652.418 235.004 652.418 226.051 646.896 220.529C641.374 215.007 632.42 215.007 626.898 220.529L586.162 261.265C580.64 266.787 580.64 275.741 586.162 281.263C591.684 286.785 600.637 286.785 606.16 281.263L646.896 240.527Z" fill="white"/>
<path d="M279.529 607.894C285.051 602.371 285.051 593.418 279.529 587.896C274.007 582.374 265.053 582.374 259.531 587.896L218.795 628.632C213.273 634.154 213.273 643.108 218.795 648.63C224.317 654.152 233.27 654.152 238.793 648.63L279.529 607.894Z" fill="white"/>
<path d="M238.794 218.923C233.272 213.401 224.318 213.401 218.796 218.923C213.274 224.445 213.274 233.399 218.796 238.921L259.532 279.657C265.054 285.179 274.008 285.179 279.53 279.657C285.052 274.135 285.052 265.182 279.53 259.659L238.794 218.923Z" fill="white"/>
<path d="M606.161 586.29C600.639 580.768 591.685 580.768 586.163 586.29C580.641 591.812 580.641 600.766 586.163 606.288L626.899 647.024C632.422 652.546 641.375 652.546 646.897 647.024C652.419 641.502 652.419 632.549 646.897 627.026L606.161 586.29Z" fill="white"/>
<path d="M144.248 419.298C136.438 419.298 130.107 425.629 130.107 433.438C130.107 441.248 136.438 447.579 144.248 447.579H201.857C209.667 447.579 215.998 441.248 215.998 433.438C215.998 425.629 209.667 419.298 201.857 419.298H144.248Z" fill="white"/>
<path d="M663.784 419.298C655.974 419.298 649.643 425.629 649.643 433.438C649.643 441.248 655.974 447.579 663.784 447.579H721.393C729.203 447.579 735.534 441.248 735.534 433.438C735.534 425.629 729.203 419.298 721.393 419.298H663.784Z" fill="white"/>
<path d="M1172.78 439.488H1095.97L1096.45 375.284H1172.78C1188.63 375.284 1202.03 371.479 1212.96 363.87C1224.06 356.26 1232.46 344.925 1238.17 329.865C1244.04 314.646 1246.97 295.94 1246.97 273.746V258.765C1246.97 242.12 1245.3 227.535 1241.97 215.011C1238.8 202.329 1234.05 191.787 1227.71 183.385C1221.37 174.824 1213.44 168.404 1203.93 164.124C1194.57 159.843 1183.79 157.703 1171.59 157.703H1094.54V93.2612H1171.59C1195.05 93.2612 1216.53 97.3037 1236.03 105.389C1255.69 113.315 1272.65 124.729 1286.92 139.631C1301.34 154.374 1312.44 171.891 1320.21 192.183C1328.13 212.316 1332.1 234.669 1332.1 259.241V273.746C1332.1 298.16 1328.13 320.512 1320.21 340.804C1312.44 361.095 1301.42 378.613 1287.16 393.356C1272.89 408.099 1256 419.513 1236.51 427.598C1217.16 435.525 1195.92 439.488 1172.78 439.488ZM1143.77 93.2612V439.488H1060.3V93.2612H1143.77Z" fill="white"/>
<path d="M1505.45 374.808V268.752C1505.45 261.46 1504.42 255.198 1502.36 249.967C1500.3 244.735 1497.05 240.693 1492.61 237.839C1488.17 234.827 1482.22 233.321 1474.77 233.321C1468.75 233.321 1463.6 234.352 1459.32 236.413C1455.04 238.473 1451.79 241.565 1449.57 245.687C1447.35 249.808 1446.24 255.04 1446.24 261.381H1366.1C1366.1 249.491 1368.72 238.473 1373.95 228.328C1379.34 218.023 1386.95 209.066 1396.78 201.457C1406.77 193.848 1418.65 187.982 1432.45 183.86C1446.4 179.58 1461.93 177.44 1479.05 177.44C1499.5 177.44 1517.74 180.848 1533.75 187.665C1549.92 194.482 1562.68 204.707 1572.03 218.34C1581.38 231.815 1586.06 248.778 1586.06 269.228V374.57C1586.06 391.374 1587.01 404.136 1588.91 412.855C1590.82 421.416 1593.51 428.946 1597 435.445V439.488H1516.63C1512.82 431.561 1509.97 421.891 1508.06 410.477C1506.32 398.904 1505.45 387.015 1505.45 374.808ZM1515.2 282.307L1515.67 325.109H1480.24C1472.79 325.109 1466.45 326.14 1461.22 328.201C1456.15 330.262 1452.03 333.115 1448.85 336.761C1445.84 340.249 1443.62 344.212 1442.2 348.651C1440.93 353.09 1440.29 357.766 1440.29 362.681C1440.29 367.437 1441.4 371.717 1443.62 375.521C1446 379.168 1449.17 382.021 1453.13 384.082C1457.1 386.143 1461.54 387.173 1466.45 387.173C1475.33 387.173 1482.86 385.509 1489.04 382.18C1495.38 378.692 1500.22 374.491 1503.55 369.577C1506.88 364.662 1508.54 360.065 1508.54 355.785L1526.14 388.6C1522.97 394.941 1519.32 401.362 1515.2 407.861C1511.24 414.361 1506.24 420.385 1500.22 425.934C1494.35 431.324 1487.14 435.762 1478.58 439.25C1470.02 442.579 1459.63 444.244 1447.43 444.244C1431.57 444.244 1416.99 440.994 1403.67 434.494C1390.52 427.994 1379.97 418.958 1372.05 407.386C1364.12 395.655 1360.16 382.18 1360.16 366.961C1360.16 353.645 1362.54 341.755 1367.29 331.292C1372.21 320.829 1379.58 311.951 1389.41 304.659C1399.24 297.367 1411.76 291.818 1426.98 288.014C1442.2 284.209 1460.11 282.307 1480.72 282.307H1515.2Z" fill="white"/>
<path d="M1711.38 245.924V439.488H1631.24V182.196H1706.15L1711.38 245.924ZM1787.47 180.293L1786.04 254.723C1782.87 254.406 1778.59 254.009 1773.2 253.534C1767.81 253.058 1763.3 252.82 1759.65 252.82C1750.3 252.82 1742.21 253.93 1735.4 256.149C1728.74 258.21 1723.19 261.381 1718.75 265.661C1714.47 269.783 1711.3 275.014 1709.24 281.355C1707.34 287.697 1706.46 295.068 1706.62 303.47L1692.12 293.958C1692.12 276.679 1693.78 260.985 1697.11 246.875C1700.6 232.608 1705.51 220.322 1711.85 210.018C1718.19 199.555 1725.88 191.549 1734.92 186C1743.96 180.293 1754.1 177.44 1765.36 177.44C1769.32 177.44 1773.2 177.678 1777.01 178.153C1780.97 178.629 1784.46 179.342 1787.47 180.293Z" fill="white"/>
<path d="M1895.91 74V439.488H1815.77V74H1895.91ZM2060.46 182.196L1948.7 313.22L1890.2 371.717L1855.24 320.829L1903.99 257.338L1964.39 182.196H2060.46ZM1974.61 439.488L1905.89 322.256L1965.1 280.167L2066.4 439.488H1974.61Z" fill="white"/>
<path d="M2400.5 89.4565C2401.29 89.298 2402.01 89.2188 2402.64 89.2188C2403.43 89.0602 2404.15 88.981 2404.78 88.981C2407.64 88.981 2409.93 89.9321 2411.68 91.8345C2413.42 93.5783 2414.61 96.7489 2415.25 101.346C2415.56 104.2 2416.04 108.242 2416.67 113.474C2417.46 118.547 2418.26 124.254 2419.05 130.595C2420 136.777 2420.95 143.198 2421.9 149.856C2423.01 156.514 2423.96 162.697 2424.76 168.404C2425.55 173.952 2426.26 178.787 2426.9 182.909C2427.53 186.872 2427.93 189.409 2428.09 190.519C2431.57 218.578 2434.66 241.089 2437.36 258.052C2440.05 275.014 2441.96 287.538 2443.07 295.623L2459 424.269L2456.62 431.641C2456.3 432.75 2454.24 434.098 2450.44 435.683C2446.63 437.268 2442.04 438.933 2436.65 440.677C2431.26 442.579 2425.39 444.402 2419.05 446.146C2412.71 447.89 2406.84 449.475 2401.45 450.902C2396.06 452.329 2391.47 453.438 2387.66 454.231C2384.01 455.182 2382.11 455.658 2381.95 455.658C2378.15 455.658 2375.14 452.883 2372.92 447.335C2370.7 441.786 2368.88 434.732 2367.45 426.171C2366.02 417.611 2364.83 408.258 2363.88 398.112C2363.09 387.966 2362.14 378.216 2361.03 368.863C2360.08 361.095 2359.21 353.248 2358.41 345.322C2357.62 337.395 2356.75 329.31 2355.8 321.067L2346.52 251.631L2258.3 413.093C2255.61 416.897 2252.91 419.672 2250.22 421.416C2247.52 423.001 2244.99 423.793 2242.61 423.793C2239.12 423.793 2236.35 422.763 2234.28 420.702C2232.38 418.641 2231.03 416.105 2230.24 413.093C2227.23 403.105 2224.61 394.703 2222.4 387.887C2220.33 380.911 2218.35 374.57 2216.45 368.863C2214.71 363.156 2213.04 357.608 2211.46 352.218C2209.87 346.828 2208.05 340.645 2205.99 333.67C2204.08 326.536 2201.87 318.213 2199.33 308.702C2196.95 299.031 2194.02 287.221 2190.53 273.271L2183.16 307.513L2148.92 452.804C2148.44 454.707 2146.46 455.658 2142.97 455.658C2139.64 455.658 2135.05 455.024 2129.18 453.755C2123.47 452.487 2117.45 450.902 2111.11 449C2104.93 447.256 2098.82 445.353 2092.8 443.292C2086.93 441.39 2082.26 439.646 2078.77 438.061C2077.98 437.744 2076.94 437.031 2075.68 435.921C2074.57 434.653 2074.01 432.75 2074.01 430.214C2074.01 429.58 2074.25 428.232 2074.73 426.171C2075.2 424.111 2075.76 421.733 2076.39 419.038C2077.18 416.184 2077.98 413.331 2078.77 410.477C2079.72 407.624 2080.59 405.087 2081.38 402.868C2083.44 397.478 2085.27 391.137 2086.85 383.844C2088.6 376.552 2090.18 369.18 2091.61 361.729C2093.04 354.279 2094.3 347.145 2095.41 340.328C2096.68 333.511 2097.87 327.804 2098.98 323.207L2128.23 186.714L2137.03 148.191C2138.14 143.277 2139.17 138.521 2140.12 133.924C2141.23 129.168 2142.18 124.888 2142.97 121.083C2143.76 117.278 2144.4 114.187 2144.87 111.809C2145.35 109.431 2145.59 108.084 2145.59 107.767L2205.04 89.4565C2207.26 89.4565 2209.16 89.6943 2210.74 90.1699C2212.49 90.487 2213.6 91.7552 2214.07 93.9746L2261.39 246.162L2326.31 109.431L2400.5 89.4565Z" fill="white"/>
<path d="M2583.84 547.921C2583.52 548.556 2583.13 549.031 2582.65 549.348C2582.33 549.824 2581.7 550.062 2580.75 550.062C2579.8 550.062 2579.08 549.982 2578.61 549.824C2572.9 547.763 2567.51 546.019 2562.44 544.592C2557.37 543.166 2552.29 541.818 2547.22 540.55C2542.31 539.44 2537.23 538.33 2532 537.221C2526.77 536.27 2521.22 535.16 2515.36 533.892C2513.77 533.575 2512.5 533.02 2511.55 532.227C2510.76 531.593 2510.36 530.404 2510.36 528.66C2510.36 528.185 2510.6 526.996 2511.08 525.093C2511.71 523.349 2513.14 519.624 2515.36 513.917C2517.58 508.368 2520.98 500.204 2525.58 489.424C2530.18 478.803 2536.52 464.456 2544.6 446.384C2542.23 438.457 2539.53 428.946 2536.52 417.849C2533.51 406.752 2530.26 394.624 2526.77 381.466C2523.44 368.308 2519.95 354.437 2516.31 339.853C2512.66 325.109 2508.94 310.287 2505.13 295.385C2501.48 280.325 2497.76 265.503 2493.95 250.918C2490.31 236.175 2486.74 222.145 2483.25 208.829C2482.14 206.292 2481.51 204.231 2481.35 202.646C2481.19 200.902 2481.11 199.475 2481.11 198.366C2481.11 196.146 2482.38 194.72 2484.92 194.085C2497.28 191.39 2510.12 188.616 2523.44 185.763C2536.76 182.751 2549.36 178.946 2561.25 174.349C2561.73 174.19 2562.44 174.111 2563.39 174.111C2565.45 174.111 2566.56 174.903 2566.72 176.489L2595.73 336.286C2596.36 334.383 2597.55 330.975 2599.3 326.061C2601.2 320.988 2603.34 314.964 2605.72 307.988C2608.25 301.013 2611.03 293.324 2614.04 284.922C2617.05 276.52 2620.14 267.96 2623.31 259.241C2626.48 250.522 2629.58 241.882 2632.59 233.321C2635.76 224.602 2638.69 216.517 2641.39 209.066C2644.08 201.616 2646.38 195.037 2648.28 189.33C2650.34 183.623 2651.93 179.342 2653.04 176.489C2653.67 174.903 2654.86 174.111 2656.6 174.111C2657.08 174.111 2657.4 174.19 2657.56 174.349C2657.71 174.349 2658.03 174.349 2658.51 174.349C2670.4 178.946 2682.6 182.751 2695.13 185.763C2707.65 188.616 2720.1 191.39 2732.46 194.085C2735.47 194.72 2736.98 196.463 2736.98 199.317C2736.98 201.378 2736.03 204.548 2734.13 208.829L2636.15 430.214L2583.84 547.921Z" fill="white"/>
<path d="M2926.5 347.462C2926.5 342.072 2925.71 337.237 2924.12 332.957C2922.54 328.518 2919.6 324.396 2915.32 320.591C2911.04 316.787 2904.86 312.982 2896.78 309.177C2888.85 305.214 2878.39 301.092 2865.39 296.812C2850.17 291.739 2835.5 286.032 2821.4 279.691C2807.29 273.191 2794.68 265.661 2783.59 257.101C2772.49 248.382 2763.69 238.236 2757.19 226.663C2750.69 214.932 2747.44 201.299 2747.44 185.763C2747.44 170.861 2750.77 157.465 2757.43 145.576C2764.09 133.528 2773.36 123.302 2785.25 114.9C2797.3 106.34 2811.41 99.8402 2827.58 95.4014C2843.75 90.804 2861.42 88.5054 2880.61 88.5054C2905.97 88.5054 2928.32 92.9442 2947.66 101.822C2967.16 110.541 2982.38 122.985 2993.32 139.155C3004.42 155.167 3009.97 174.111 3009.97 195.988H2926.98C2926.98 187.269 2925.15 179.58 2921.51 172.922C2918.02 166.264 2912.71 161.032 2905.57 157.228C2898.44 153.423 2889.48 151.521 2878.7 151.521C2868.24 151.521 2859.44 153.106 2852.31 156.276C2845.17 159.447 2839.78 163.727 2836.14 169.117C2832.49 174.349 2830.67 180.135 2830.67 186.476C2830.67 191.708 2832.1 196.463 2834.95 200.744C2837.96 204.865 2842.16 208.749 2847.55 212.396C2853.1 216.042 2859.76 219.529 2867.53 222.858C2875.45 226.188 2884.33 229.437 2894.16 232.608C2912.55 238.473 2928.88 245.052 2943.15 252.345C2957.57 259.479 2969.7 267.643 2979.53 276.837C2989.52 285.874 2997.05 296.178 3002.12 307.75C3007.35 319.323 3009.97 332.402 3009.97 346.986C3009.97 362.522 3006.95 376.314 3000.93 388.362C2994.91 400.41 2986.27 410.636 2975.01 419.038C2963.75 427.281 2950.28 433.543 2934.58 437.823C2918.89 442.104 2901.37 444.244 2882.03 444.244C2864.28 444.244 2846.76 442.024 2829.48 437.585C2812.36 432.988 2796.82 426.013 2782.87 416.66C2768.92 407.148 2757.75 395.021 2749.34 380.277C2741.1 365.376 2736.98 347.7 2736.98 327.25H2820.68C2820.68 337.395 2822.03 345.956 2824.72 352.931C2827.42 359.906 2831.38 365.534 2836.61 369.814C2841.85 373.936 2848.27 376.948 2855.88 378.851C2863.48 380.594 2872.2 381.466 2882.03 381.466C2892.65 381.466 2901.21 379.96 2907.71 376.948C2914.21 373.778 2918.97 369.656 2921.98 364.583C2924.99 359.352 2926.5 353.645 2926.5 347.462Z" fill="white"/>
<path d="M3133.86 182.196V439.488H3053.48V182.196H3133.86ZM3048.73 115.852C3048.73 104.438 3052.85 95.0843 3061.09 87.792C3069.33 80.4997 3080.03 76.8535 3093.19 76.8535C3106.35 76.8535 3117.05 80.4997 3125.29 87.792C3133.54 95.0843 3137.66 104.438 3137.66 115.852C3137.66 127.266 3133.54 136.619 3125.29 143.911C3117.05 151.203 3106.35 154.85 3093.19 154.85C3080.03 154.85 3069.33 151.203 3061.09 143.911C3052.85 136.619 3048.73 127.266 3048.73 115.852Z" fill="white"/>
<path d="M3318.86 182.196V237.839H3163.82V182.196H3318.86ZM3196.4 118.229H3276.53V355.547C3276.53 362.364 3277.32 367.674 3278.91 371.479C3280.49 375.125 3283.19 377.741 3286.99 379.326C3290.96 380.753 3296.19 381.466 3302.69 381.466C3307.29 381.466 3311.09 381.387 3314.1 381.229C3317.11 380.911 3319.97 380.515 3322.66 380.04V437.348C3315.85 439.567 3308.71 441.232 3301.26 442.341C3293.81 443.61 3285.88 444.244 3277.48 444.244C3260.36 444.244 3245.7 441.549 3233.49 436.159C3221.44 430.769 3212.25 422.287 3205.91 410.715C3199.57 399.142 3196.4 384.082 3196.4 365.534V118.229Z" fill="white"/>
<path d="M3475.33 444.244C3454.4 444.244 3435.69 440.994 3419.21 434.494C3402.72 427.836 3388.77 418.721 3377.36 407.148C3366.1 395.575 3357.46 382.259 3351.44 367.199C3345.57 352.139 3342.64 336.206 3342.64 319.402V310.366C3342.64 291.501 3345.25 274.063 3350.48 258.052C3355.72 241.882 3363.48 227.773 3373.79 215.725C3384.09 203.676 3397.01 194.323 3412.55 187.665C3428.08 180.848 3446.16 177.44 3466.77 177.44C3485 177.44 3501.32 180.373 3515.75 186.238C3530.18 192.104 3542.38 200.506 3552.37 211.444C3562.52 222.383 3570.21 235.62 3575.44 251.156C3580.83 266.692 3583.52 284.13 3583.52 303.47V336.048H3373.31V285.874H3505.29V279.691C3505.45 271.13 3503.94 263.838 3500.77 257.814C3497.76 251.79 3493.32 247.193 3487.45 244.022C3481.59 240.851 3474.45 239.266 3466.05 239.266C3457.33 239.266 3450.12 241.168 3444.41 244.973C3438.86 248.778 3434.51 254.009 3431.33 260.667C3428.32 267.167 3426.18 274.697 3424.91 283.258C3423.65 291.818 3423.01 300.854 3423.01 310.366V319.402C3423.01 328.914 3424.28 337.554 3426.82 345.322C3429.51 353.09 3433.32 359.748 3438.23 365.296C3443.3 370.686 3449.33 374.887 3456.3 377.899C3463.44 380.911 3471.52 382.417 3480.56 382.417C3491.5 382.417 3502.28 380.357 3512.9 376.235C3523.52 372.113 3532.63 365.296 3540.24 355.785L3576.63 399.063C3571.39 406.514 3563.94 413.727 3554.27 420.702C3544.76 427.677 3533.35 433.384 3520.03 437.823C3506.71 442.104 3491.81 444.244 3475.33 444.244Z" fill="white"/>
<path d="M1103.9 755.875L1146.09 577.628H1169.67L1175.05 607.312L1130.09 789.488H1104.77L1103.9 755.875ZM1082.22 577.628L1117.14 755.875L1114.23 789.488H1086L1039 577.628H1082.22ZM1212.15 755.148L1246.64 577.628H1289.86L1243 789.488H1214.77L1212.15 755.148ZM1182.91 577.628L1225.4 756.603L1224.23 789.488H1198.91L1153.66 607.167L1159.48 577.628H1182.91Z" fill="white"/>
<path d="M1396.08 713.969H1342.09V679.92H1396.08C1404.42 679.92 1411.21 678.562 1416.45 675.846C1421.69 673.033 1425.52 669.153 1427.94 664.206C1430.37 659.258 1431.58 653.681 1431.58 647.472C1431.58 641.167 1430.37 635.298 1427.94 629.866C1425.52 624.433 1421.69 620.068 1416.45 616.77C1411.21 613.472 1404.42 611.823 1396.08 611.823H1357.23V789.488H1313.57V577.628H1396.08C1412.66 577.628 1426.88 580.636 1438.71 586.65C1450.64 592.567 1459.76 600.764 1466.07 611.241C1472.37 621.717 1475.52 633.697 1475.52 647.181C1475.52 660.859 1472.37 672.694 1466.07 682.685C1459.76 692.677 1450.64 700.389 1438.71 705.821C1426.88 711.253 1412.66 713.969 1396.08 713.969Z" fill="white"/>
<path d="M1644.89 789.488H1598.77L1599.06 755.439H1644.89C1656.34 755.439 1665.99 752.868 1673.85 747.727C1681.71 742.489 1687.63 734.874 1691.6 724.882C1695.68 714.891 1697.71 702.814 1697.71 688.651V678.32C1697.71 667.455 1696.55 657.9 1694.22 649.655C1691.99 641.409 1688.64 634.473 1684.18 628.847C1679.72 623.221 1674.24 619.001 1667.74 616.188C1661.24 613.278 1653.77 611.823 1645.33 611.823H1597.9V577.628H1645.33C1659.49 577.628 1672.44 580.054 1684.18 584.904C1696.02 589.657 1706.25 596.496 1714.88 605.42C1723.52 614.345 1730.16 625.015 1734.82 637.432C1739.57 649.752 1741.95 663.478 1741.95 678.611V688.651C1741.95 703.687 1739.57 717.413 1734.82 729.83C1730.16 742.246 1723.52 752.917 1714.88 761.841C1706.35 770.669 1696.11 777.508 1684.18 782.358C1672.35 787.111 1659.25 789.488 1644.89 789.488ZM1623.5 577.628V789.488H1579.85V577.628H1623.5Z" fill="white"/>
<path d="M1856.03 753.984V683.849C1856.03 678.805 1855.2 674.488 1853.55 670.899C1851.9 667.213 1849.33 664.351 1845.84 662.314C1842.45 660.277 1838.03 659.258 1832.6 659.258C1827.94 659.258 1823.92 660.083 1820.52 661.732C1817.13 663.284 1814.51 665.564 1812.67 668.571C1810.82 671.481 1809.9 674.925 1809.9 678.902H1767.99C1767.99 672.208 1769.55 665.855 1772.65 659.84C1775.75 653.826 1780.27 648.539 1786.18 643.98C1792.1 639.324 1799.13 635.686 1807.28 633.067C1815.53 630.448 1824.74 629.138 1834.93 629.138C1847.15 629.138 1858.01 631.175 1867.52 635.25C1877.03 639.324 1884.5 645.435 1889.93 653.583C1895.46 661.732 1898.22 671.917 1898.22 684.14V751.51C1898.22 760.144 1898.76 767.225 1899.82 772.754C1900.89 778.187 1902.44 782.94 1904.48 787.014V789.488H1862.14C1860.1 785.22 1858.55 779.884 1857.48 773.482C1856.51 766.983 1856.03 760.483 1856.03 753.984ZM1861.56 693.598L1861.85 717.316H1838.42C1832.89 717.316 1828.09 717.946 1824.01 719.208C1819.94 720.469 1816.59 722.263 1813.97 724.591C1811.36 726.822 1809.42 729.442 1808.15 732.449C1806.99 735.456 1806.41 738.754 1806.41 742.343C1806.41 745.932 1807.23 749.182 1808.88 752.092C1810.53 754.905 1812.91 757.137 1816.01 758.786C1819.12 760.338 1822.75 761.114 1826.92 761.114C1833.23 761.114 1838.71 759.853 1843.37 757.331C1848.02 754.808 1851.61 751.704 1854.13 748.018C1856.75 744.332 1858.11 740.84 1858.21 737.542L1869.27 755.293C1867.72 759.271 1865.58 763.393 1862.87 767.662C1860.25 771.93 1856.9 775.956 1852.83 779.739C1848.75 783.425 1843.85 786.481 1838.13 788.906C1832.41 791.234 1825.62 792.398 1817.76 792.398C1807.77 792.398 1798.7 790.409 1790.55 786.432C1782.5 782.358 1776.09 776.78 1771.34 769.699C1766.68 762.52 1764.36 754.372 1764.36 745.253C1764.36 737.008 1765.91 729.684 1769.01 723.282C1772.12 716.879 1776.68 711.496 1782.69 707.13C1788.8 702.668 1796.42 699.321 1805.54 697.09C1814.65 694.762 1825.23 693.598 1837.26 693.598H1861.56Z" fill="white"/>
<path d="M1972.43 666.388V789.488H1930.53V632.048H1969.96L1972.43 666.388ZM2019.87 631.03L2019.14 669.88C2017.1 669.589 2014.63 669.347 2011.72 669.153C2008.91 668.862 2006.34 668.716 2004.01 668.716C1998.09 668.716 1992.95 669.492 1988.58 671.044C1984.32 672.5 1980.73 674.682 1977.82 677.592C1975 680.502 1972.87 684.043 1971.41 688.214C1970.06 692.386 1969.28 697.139 1969.09 702.474L1960.65 699.855C1960.65 689.669 1961.67 680.308 1963.7 671.772C1965.74 663.139 1968.7 655.621 1972.58 649.218C1976.56 642.816 1981.41 637.869 1987.13 634.376C1992.85 630.884 1999.4 629.138 2006.77 629.138C2009.1 629.138 2011.48 629.332 2013.9 629.72C2016.33 630.011 2018.32 630.448 2019.87 631.03Z" fill="white"/>
<path d="M2081.56 565.842V789.488H2039.66V565.842H2081.56ZM2180.8 632.048L2112.41 710.041L2075.74 747.145L2060.46 716.879L2089.57 679.92L2130.45 632.048H2180.8ZM2137.29 789.488L2090.73 716.734L2119.69 691.416L2185.6 789.488H2137.29Z" fill="white"/>
<path d="M2295.61 577.628H2332.56L2386.98 733.176L2441.4 577.628H2478.36L2401.83 789.488H2372.14L2295.61 577.628ZM2275.67 577.628H2312.48L2319.18 729.248V789.488H2275.67V577.628ZM2461.48 577.628H2498.44V789.488H2454.79V729.248L2461.48 577.628Z" fill="white"/>
<path d="M2527.4 712.369V709.313C2527.4 697.769 2529.05 687.147 2532.35 677.447C2535.64 667.649 2540.45 659.161 2546.75 651.983C2553.06 644.805 2560.82 639.227 2570.03 635.25C2579.25 631.175 2589.82 629.138 2601.75 629.138C2613.69 629.138 2624.31 631.175 2633.62 635.25C2642.93 639.227 2650.74 644.805 2657.05 651.983C2663.45 659.161 2668.3 667.649 2671.6 677.447C2674.9 687.147 2676.54 697.769 2676.54 709.313V712.369C2676.54 723.815 2674.9 734.437 2671.6 744.235C2668.3 753.935 2663.45 762.423 2657.05 769.699C2650.74 776.877 2642.98 782.455 2633.77 786.432C2624.55 790.409 2613.98 792.398 2602.04 792.398C2590.11 792.398 2579.49 790.409 2570.18 786.432C2560.96 782.455 2553.15 776.877 2546.75 769.699C2540.45 762.423 2535.64 753.935 2532.35 744.235C2529.05 734.437 2527.4 723.815 2527.4 712.369ZM2569.31 709.313V712.369C2569.31 718.965 2569.89 725.125 2571.05 730.848C2572.22 736.571 2574.06 741.616 2576.58 745.981C2579.2 750.249 2582.6 753.596 2586.77 756.021C2590.94 758.446 2596.03 759.659 2602.04 759.659C2607.87 759.659 2612.86 758.446 2617.03 756.021C2621.2 753.596 2624.55 750.249 2627.07 745.981C2629.59 741.616 2631.44 736.571 2632.6 730.848C2633.86 725.125 2634.49 718.965 2634.49 712.369V709.313C2634.49 702.911 2633.86 696.896 2632.6 691.27C2631.44 685.547 2629.55 680.502 2626.93 676.137C2624.4 671.675 2621.06 668.183 2616.89 665.661C2612.72 663.139 2607.67 661.877 2601.75 661.877C2595.84 661.877 2590.79 663.139 2586.62 665.661C2582.55 668.183 2579.2 671.675 2576.58 676.137C2574.06 680.502 2572.22 685.547 2571.05 691.27C2569.89 696.896 2569.31 702.911 2569.31 709.313Z" fill="white"/>
<path d="M2795.28 755.148V565.988H2837.48V789.488H2799.5L2795.28 755.148ZM2695.75 712.66V709.604C2695.75 697.575 2697.11 686.662 2699.83 676.865C2702.54 666.97 2706.52 658.482 2711.76 651.401C2717 644.319 2723.45 638.839 2731.11 634.958C2738.77 631.078 2747.5 629.138 2757.3 629.138C2766.52 629.138 2774.57 631.078 2781.46 634.958C2788.44 638.839 2794.36 644.368 2799.21 651.546C2804.16 658.628 2808.13 667.019 2811.14 676.719C2814.15 686.323 2816.33 696.848 2817.69 708.294V714.988C2816.33 725.949 2814.15 736.135 2811.14 745.544C2808.13 754.954 2804.16 763.199 2799.21 770.281C2794.36 777.265 2788.44 782.697 2781.46 786.578C2774.47 790.458 2766.32 792.398 2757.01 792.398C2747.21 792.398 2738.48 790.409 2730.82 786.432C2723.25 782.455 2716.85 776.877 2711.61 769.699C2706.47 762.52 2702.54 754.081 2699.83 744.38C2697.11 734.68 2695.75 724.106 2695.75 712.66ZM2737.66 709.604V712.66C2737.66 719.159 2738.14 725.222 2739.11 730.848C2740.18 736.474 2741.88 741.47 2744.21 745.835C2746.63 750.104 2749.74 753.45 2753.52 755.875C2757.4 758.204 2762.1 759.368 2767.63 759.368C2774.81 759.368 2780.73 757.767 2785.38 754.566C2790.04 751.268 2793.58 746.757 2796.01 741.034C2798.53 735.31 2799.98 728.714 2800.37 721.245V702.183C2800.08 696.072 2799.21 690.591 2797.75 685.741C2796.39 680.793 2794.36 676.574 2791.64 673.082C2789.02 669.589 2785.72 666.873 2781.75 664.933C2777.87 662.993 2773.26 662.023 2767.92 662.023C2762.49 662.023 2757.84 663.284 2753.96 665.806C2750.07 668.231 2746.92 671.578 2744.5 675.846C2742.17 680.114 2740.42 685.159 2739.26 690.979C2738.19 696.702 2737.66 702.911 2737.66 709.604Z" fill="white"/>
<path d="M2942.68 792.398C2930.46 792.398 2919.49 790.458 2909.79 786.578C2900.09 782.6 2891.85 777.12 2885.06 770.135C2878.36 763.151 2873.22 755.051 2869.63 745.835C2866.04 736.523 2864.25 726.628 2864.25 716.152V710.332C2864.25 698.4 2865.95 687.487 2869.34 677.592C2872.74 667.698 2877.59 659.113 2883.89 651.837C2890.3 644.562 2898.06 638.984 2907.17 635.104C2916.29 631.127 2926.58 629.138 2938.02 629.138C2949.18 629.138 2959.07 630.981 2967.71 634.667C2976.34 638.354 2983.57 643.592 2989.39 650.382C2995.3 657.173 2999.77 665.321 3002.77 674.828C3005.78 684.237 3007.28 694.714 3007.28 706.257V723.718H2882.15V695.781H2966.11V692.58C2966.11 686.759 2965.04 681.569 2962.9 677.01C2960.87 672.354 2957.76 668.668 2953.59 665.952C2949.42 663.236 2944.09 661.877 2937.59 661.877C2932.06 661.877 2927.3 663.09 2923.33 665.515C2919.35 667.94 2916.1 671.335 2913.58 675.701C2911.15 680.066 2909.31 685.207 2908.05 691.125C2906.88 696.945 2906.3 703.347 2906.3 710.332V716.152C2906.3 722.457 2907.17 728.278 2908.92 733.613C2910.76 738.948 2913.33 743.556 2916.63 747.436C2920.03 751.316 2924.1 754.323 2928.86 756.458C2933.71 758.592 2939.19 759.659 2945.3 759.659C2952.86 759.659 2959.9 758.204 2966.4 755.293C2972.99 752.286 2978.67 747.776 2983.42 741.761L3003.79 763.878C3000.49 768.632 2995.98 773.191 2990.26 777.556C2984.63 781.921 2977.84 785.511 2969.89 788.324C2961.93 791.04 2952.86 792.398 2942.68 792.398Z" fill="white"/>
</svg>
