<svg width="19" height="19" viewBox="0 0 19 19" fill="none" xmlns="http://www.w3.org/2000/svg">
    <path d="M0 2.69034C0 1.20451 1.20451 0 2.69034 0H15.7367C17.2225 0 18.427 1.20451 18.427 2.69034V15.7367C18.427 17.2225 17.2225 18.427 15.7367 18.427H2.69034C1.20451 18.427 0 17.2225 0 15.7367V2.69034Z" fill="white"/>
    <path d="M9.43373 13.3263C11.5847 13.3263 13.3284 11.5826 13.3284 9.43165C13.3284 7.28069 11.5847 5.53699 9.43373 5.53699C7.28276 5.53699 5.53906 7.28069 5.53906 9.43165C5.53906 11.5826 7.28276 13.3263 9.43373 13.3263Z" fill="#121116"/>
    <path d="M9.44445 12.5473C8.62106 12.5473 7.83139 12.2202 7.24917 11.638C6.66694 11.0558 6.33984 10.2662 6.33984 9.44274C6.33984 8.61935 6.66694 7.82967 7.24917 7.24745C7.83139 6.66522 8.62106 6.33813 9.44445 6.33813V9.44274V12.5473Z" fill="white"/>
    <path d="M9.74445 3.30045C9.74445 3.13451 9.60993 3 9.444 3C9.27807 3 9.14355 3.13451 9.14355 3.30045V4.52448C9.14355 4.69041 9.27807 4.82493 9.444 4.82493C9.60993 4.82493 9.74445 4.69041 9.74445 4.52448V3.30045Z" fill="#121116"/>
    <path d="M9.74445 14.339C9.74445 14.1731 9.60993 14.0386 9.444 14.0386C9.27807 14.0386 9.14355 14.1731 9.14355 14.339V15.5631C9.14355 15.729 9.27807 15.8635 9.444 15.8635C9.60993 15.8635 9.74445 15.729 9.74445 15.5631V14.339Z" fill="#121116"/>
    <path d="M13.981 5.30897C14.0983 5.19164 14.0983 5.00141 13.981 4.88408C13.8637 4.76675 13.6734 4.76675 13.5561 4.88408L12.6906 5.7496C12.5733 5.86693 12.5733 6.05717 12.6906 6.1745C12.8079 6.29183 12.9981 6.29183 13.1155 6.1745L13.981 5.30897Z" fill="#121116"/>
    <path d="M6.17631 13.1144C6.29365 12.9971 6.29365 12.8068 6.17631 12.6895C6.05898 12.5722 5.86875 12.5722 5.75142 12.6895L4.8859 13.555C4.76856 13.6724 4.76856 13.8626 4.8859 13.9799C5.00323 14.0972 5.19346 14.0972 5.31079 13.9799L6.17631 13.1144Z" fill="#121116"/>
    <path d="M5.31117 4.85018C5.19384 4.73284 5.00361 4.73284 4.88628 4.85018C4.76894 4.96751 4.76894 5.15774 4.88628 5.27507L5.7518 6.14059C5.86913 6.25792 6.05936 6.25792 6.17669 6.14059C6.29402 6.02326 6.29402 5.83303 6.17669 5.7157L5.31117 4.85018Z" fill="#121116"/>
    <path d="M13.1168 12.6556C12.9995 12.5383 12.8093 12.5383 12.6919 12.6556C12.5746 12.7729 12.5746 12.9632 12.6919 13.0805L13.5575 13.946C13.6748 14.0633 13.865 14.0633 13.9824 13.946C14.0997 13.8287 14.0997 13.6384 13.9824 13.5211L13.1168 12.6556Z" fill="#121116"/>
    <path d="M3.30045 9.10736C3.13451 9.10736 3 9.24187 3 9.40781C3 9.57374 3.13451 9.70825 3.30045 9.70825H4.52448C4.69041 9.70825 4.82493 9.57374 4.82493 9.40781C4.82493 9.24187 4.69041 9.10736 4.52448 9.10736H3.30045Z" fill="#121116"/>
    <path d="M14.3395 9.1076C14.1736 9.1076 14.0391 9.24212 14.0391 9.40805C14.0391 9.57398 14.1736 9.7085 14.3395 9.7085H15.5635C15.7295 9.7085 15.864 9.57398 15.864 9.40805C15.864 9.24212 15.7295 9.1076 15.5635 9.1076H14.3395Z" fill="#121116"/>
</svg>
