<svg viewBox="0 0 23 23" fill="none" xmlns="http://www.w3.org/2000/svg">
<path d="M21.6919 17.3678C21.2141 17.0316 20.6626 16.851 20.1056 16.8216C18.0063 15.4472 16.6311 14.4157 15.8282 13.613L13.3618 11.1474L14.8585 9.47253C15.1422 9.63259 15.4468 9.73806 15.7515 9.78157C15.9815 9.81987 16.1348 9.81987 16.2881 9.81987C16.5947 9.81987 16.6713 9.81987 16.9779 10.0881C16.8246 10.203 16.748 10.3946 16.748 10.5861C16.748 10.7777 16.8246 11.0076 16.9779 11.1608L18.3193 12.5018C18.511 12.7317 18.8175 12.8467 19.1241 12.8467C19.4307 12.8467 19.7373 12.7317 19.929 12.4635L22.65 9.74323C22.88 9.55164 22.995 9.24516 22.995 8.93863C22.995 8.6321 22.88 8.36392 22.65 8.13404L21.3087 6.79303C21.1554 6.63979 20.9637 6.56315 20.7721 6.56315C20.5804 6.56315 20.3889 6.67809 20.2355 6.79303C19.9289 6.52485 19.9289 6.4482 19.9289 6.14168C19.9289 5.98844 19.9289 5.79685 19.8522 5.56697C19.7756 5.03055 19.5073 4.49419 19.0857 4.07272L17.706 2.69341C16.9012 1.88882 16.518 1.50569 15.4832 1.04593C13.2604 0.0114466 10.9992 0.203032 7.70325 1.69728C7.51161 1.77392 7.43499 1.92716 7.4733 2.11875C7.51161 2.31033 7.66494 2.42528 7.85654 2.42528H8.35474C10.0411 2.42528 10.9225 2.42528 12.4555 3.95782C13.1268 4.62889 13.1461 5.65784 12.5447 6.41489C12.4636 6.4271 12.4019 6.46347 12.3405 6.52485L10.6381 8.42444L9.35121 7.1379C7.93675 5.72384 6.94186 4.38598 6.17616 2.89627C6.13596 2.14246 5.83339 1.43718 5.28879 0.892729C4.63729 0.241421 3.7175 -0.0651065 2.7977 0.0115365C2.68273 0.0498356 2.56775 0.126479 2.52944 0.203122C2.45278 0.318064 2.45278 0.471305 2.52944 0.586247L3.60252 2.50196C3.37257 3.00003 2.83601 3.30656 2.29949 3.26826L1.18806 1.42914C1.14975 1.3142 0.996416 1.23756 0.881442 1.23756C0.766467 1.19926 0.651493 1.27585 0.574828 1.3908C-0.344969 2.7701 -4.48873e-05 4.60918 1.37965 5.56701C1.855 5.90645 2.39053 6.09521 2.93288 6.13391C2.93895 6.13647 2.94465 6.13961 2.95094 6.14172C4.44561 6.90802 5.78699 7.90415 7.205 9.3218L8.60665 10.6912L0.459898 19.7816C0.153284 20.0881 0 20.5095 0 20.931C0 21.3525 0.153284 21.7356 0.459898 22.0421L0.996461 22.5785C1.30308 22.8467 1.68631 23 2.06954 23C2.45278 23 2.87436 22.8468 3.18098 22.5402L11.3184 13.4341L13.682 15.7969C14.486 16.6008 15.5196 18.0165 16.8974 20.0823C16.9468 20.8197 17.2487 21.5082 17.7828 22.0421C18.3576 22.6168 19.1241 22.9234 19.929 22.9234C20.0439 22.9234 20.1589 22.9234 20.2356 22.9234C20.3505 22.9234 20.4655 22.8467 20.5422 22.7318C20.6188 22.6168 20.6188 22.4636 20.5422 22.3486L19.4307 20.4713C19.699 19.9732 20.1973 19.6667 20.7721 19.705L21.8452 21.5441C21.8835 21.659 22.0369 21.7356 22.1518 21.7356C22.3051 21.6973 22.4201 21.659 22.4968 21.5441C23.4165 20.1647 23.0332 18.3256 21.6919 17.3678ZM12.9538 3.34486C11.7274 2.15714 10.8076 1.77397 9.77284 1.65902C11.9574 0.969372 13.567 1.00767 15.1766 1.73567C16.0964 2.11879 16.4031 2.42532 17.2079 3.22991L18.5876 4.60922C18.8942 4.91575 19.0858 5.29887 19.1241 5.682C19.1624 5.87358 19.1624 6.02682 19.1624 6.14177C19.1624 6.56324 19.2008 6.86972 19.6607 7.32949C19.8139 7.48273 20.0439 7.55937 20.2355 7.55937C20.4655 7.55937 20.6571 7.48273 20.7721 7.32949L22.1135 8.67049C22.1901 8.74714 22.2284 8.82373 22.2284 8.93868C22.2284 9.05362 22.1901 9.13026 22.1135 9.20686L19.3924 11.9272C19.2391 12.0804 19.0092 12.0804 18.8558 11.9272L17.5144 10.5862C17.6677 10.4712 17.7444 10.2796 17.7061 10.0498C17.7061 9.85817 17.6294 9.62828 17.4761 9.47504C17.0162 9.01527 16.7096 8.97697 16.2881 8.97697C16.1731 8.97697 16.0198 8.97697 15.8282 8.93868C15.4066 8.90038 15.0617 8.70879 14.7551 8.40226L13.1071 6.75478C13.9502 5.72034 13.8736 4.26439 12.9538 3.34486ZM0.919797 2.42532L1.72462 3.80463C1.80128 3.91957 1.91626 3.99621 2.03123 3.99621H2.22287C3.10436 4.03451 3.90918 3.57474 4.29241 2.80849L4.36908 2.61691C4.44574 2.50196 4.44574 2.38702 4.36908 2.27208L3.5259 0.816131C3.9858 0.892774 4.40739 1.12266 4.75231 1.46748C5.14745 1.89542 5.40044 2.43664 5.41539 3.01799C5.40798 3.04749 5.40381 3.07923 5.40381 3.11502C5.40381 3.29246 5.38238 3.46555 5.34272 3.63239C5.19815 4.18717 4.85148 4.67087 4.36903 4.99244C3.60252 5.4905 2.56775 5.4905 1.80128 4.95414C0.996461 4.37934 0.651538 3.34486 0.919797 2.42532ZM7.74161 8.78543C6.59186 7.59771 5.44212 6.67818 4.2157 5.95018C4.40734 5.87354 4.63729 5.7586 4.82889 5.64365C5.40376 5.26053 5.78699 4.76242 6.01694 4.14941C6.7451 5.37547 7.6649 6.52489 8.81464 7.67431L10.131 8.99031L9.09871 10.1422L7.74161 8.78543ZM2.64442 21.9655C2.3378 22.272 1.83959 22.3103 1.53298 22.0038L0.996416 21.5057C0.843132 21.3525 0.766467 21.1609 0.766467 20.9693C0.766467 20.7394 0.843132 20.5478 1.03473 20.3563L1.25179 20.1135L1.80124 20.6628C1.8779 20.7395 1.95452 20.7778 2.0695 20.7778C2.18447 20.7778 2.26114 20.7395 2.33776 20.6628C2.49104 20.5096 2.49104 20.2797 2.33776 20.1264L1.75821 19.547L2.26468 18.9805L2.87432 19.59C2.95098 19.6666 3.0276 19.7049 3.14258 19.7049C3.25755 19.7049 3.33422 19.6666 3.41084 19.59C3.56412 19.4367 3.56412 19.2069 3.41084 19.0536L2.7712 18.4141L12.6291 7.38803L14.2387 8.99722L12.6572 10.7662C12.612 10.7853 12.572 10.8146 12.5322 10.8544L10.9992 12.5785C10.9555 12.6223 10.9247 12.6724 10.9059 12.7251L2.64442 21.9655ZM11.8428 12.8472L12.8917 11.6735L15.3682 14.1494C16.0581 14.8774 17.2461 15.7969 18.9708 16.9463C18.7408 17.023 18.5109 17.1379 18.2809 17.2911C17.8054 17.5882 17.4687 18.0007 17.234 18.4567C17.2306 18.4632 17.2274 18.4699 17.224 18.4764C17.21 18.5039 17.1965 18.5314 17.1833 18.5592C17.1644 18.5985 17.1464 18.6382 17.1292 18.6784C17.1174 18.7055 17.1057 18.7327 17.0946 18.76C17.093 18.764 17.0915 18.7679 17.0899 18.7719C17.0779 18.8019 17.0659 18.8319 17.0545 18.862C16.8369 18.5429 16.6274 18.2416 16.426 17.9579L16.9396 17.4444C17.0929 17.2912 17.0929 17.0613 16.9396 16.908C16.7863 16.7548 16.5563 16.7548 16.403 16.908L15.9758 17.3352C15.8165 17.1191 15.6627 16.9153 15.5143 16.7237L15.8665 16.3716C16.0198 16.2184 16.0198 15.9885 15.8665 15.8352C15.7132 15.682 15.4833 15.682 15.3299 15.8352L15.0374 16.1277C14.7557 15.7883 14.4959 15.4994 14.2568 15.2605L11.8428 12.8472ZM22.1134 20.5095L21.3086 19.1302C21.2319 19.0153 21.117 18.9386 21.002 18.9386H20.8104C19.9289 18.862 19.124 19.3601 18.7408 20.1264L18.6641 20.3179C18.5875 20.4329 18.5875 20.5478 18.6641 20.6628L19.5073 22.1187C19.0474 22.0421 18.6258 21.8122 18.2809 21.4674C17.8932 21.0475 17.6427 20.5186 17.6191 19.9499C17.6256 19.9219 17.6293 19.8918 17.6293 19.8582C17.6293 19.3728 17.7835 18.9184 18.0521 18.5335C18.2171 18.3039 18.4236 18.1028 18.6641 17.9425C19.0473 17.6743 19.4689 17.5594 19.9288 17.5594C20.3887 17.5594 20.8486 17.7126 21.2319 17.9808C22.0368 18.5555 22.3817 19.59 22.1134 20.5095Z" fill="#121116"/>
</svg>
