<svg viewBox="0 0 23 22" fill="none" xmlns="http://www.w3.org/2000/svg">
<path d="M3.11864 15.6244V0.389831C3.11864 0.174254 2.94439 0 2.72881 0C2.51324 0 2.33898 0.174254 2.33898 0.389831V15.6244C1.01902 15.8146 0 16.9502 0 18.322C0 19.8264 1.22446 21.0508 2.72881 21.0508C4.23317 21.0508 5.45763 19.8264 5.45763 18.322C5.45763 16.9502 4.43861 15.8146 3.11864 15.6244ZM2.72881 20.2712C1.65405 20.2712 0.779661 19.3968 0.779661 18.322C0.779661 17.2473 1.65405 16.3729 2.72881 16.3729C3.80358 16.3729 4.67797 17.2473 4.67797 18.322C4.67797 19.3968 3.80358 20.2712 2.72881 20.2712Z" fill="#121116"/>
<path d="M8.9663 10.9464V0.389831C8.9663 0.174254 8.79205 0 8.57647 0C8.36089 0 8.18664 0.174254 8.18664 0.389831V10.9464C6.86667 11.1367 5.84766 12.2723 5.84766 13.6441C5.84766 15.0159 6.86667 16.1515 8.18664 16.3417V20.661C8.18664 20.8766 8.36089 21.0508 8.57647 21.0508C8.79205 21.0508 8.9663 20.8766 8.9663 20.661V16.3417C10.2863 16.1515 11.3053 15.0159 11.3053 13.6441C11.3053 12.2723 10.2863 11.1367 8.9663 10.9464ZM8.57647 15.5932C7.50171 15.5932 6.62732 14.7188 6.62732 13.6441C6.62732 12.5693 7.50171 11.6949 8.57647 11.6949C9.65123 11.6949 10.5256 12.5693 10.5256 13.6441C10.5256 14.7188 9.65123 15.5932 8.57647 15.5932Z" fill="#121116"/>
<path d="M14.8135 6.26847V0.389831C14.8135 0.174254 14.6392 0 14.4236 0C14.2081 0 14.0338 0.174254 14.0338 0.389831V6.26847C12.7138 6.45871 11.6948 7.59429 11.6948 8.9661C11.6948 10.3379 12.7138 11.4735 14.0338 11.6637V20.661C14.0338 20.8766 14.2081 21.0508 14.4236 21.0508C14.6392 21.0508 14.8135 20.8766 14.8135 20.661V11.6637C16.1334 11.4735 17.1525 10.3379 17.1525 8.9661C17.1525 7.59429 16.1334 6.45871 14.8135 6.26847ZM14.4236 10.9153C13.3489 10.9153 12.4745 10.0409 12.4745 8.9661C12.4745 7.89134 13.3489 7.01695 14.4236 7.01695C15.4984 7.01695 16.3728 7.89134 16.3728 8.9661C16.3728 10.0409 15.4984 10.9153 14.4236 10.9153Z" fill="#121116"/>
<path d="M23.0001 4.28814C23.0001 2.91632 21.9811 1.78075 20.6611 1.59051V0.389831C20.6611 0.174254 20.4869 0 20.2713 0C20.0557 0 19.8815 0.174254 19.8815 0.389831V1.59051C18.5615 1.78075 17.5425 2.91632 17.5425 4.28814C17.5425 5.65995 18.5615 6.79553 19.8815 6.98576V20.661C19.8815 20.8766 20.0557 21.0508 20.2713 21.0508C20.4869 21.0508 20.6611 20.8766 20.6611 20.661V6.98576C21.9811 6.79553 23.0001 5.65995 23.0001 4.28814ZM20.2713 6.23729C19.1965 6.23729 18.3221 5.3629 18.3221 4.28814C18.3221 3.21337 19.1965 2.33898 20.2713 2.33898C21.3461 2.33898 22.2204 3.21337 22.2204 4.28814C22.2204 5.3629 21.3461 6.23729 20.2713 6.23729Z" fill="#121116"/>
<path d="M20.6612 3.11865H19.8815C19.666 3.11865 19.4917 3.29291 19.4917 3.50848C19.4917 3.72406 19.666 3.89831 19.8815 3.89831H20.6612C20.8768 3.89831 21.051 3.72406 21.051 3.50848C21.051 3.29291 20.8768 3.11865 20.6612 3.11865Z" fill="#121116"/>
<path d="M14.813 7.79663H14.0334C13.8178 7.79663 13.6436 7.97089 13.6436 8.18646C13.6436 8.40204 13.8178 8.57629 14.0334 8.57629H14.813C15.0286 8.57629 15.2029 8.40204 15.2029 8.18646C15.2029 7.97089 15.0286 7.79663 14.813 7.79663Z" fill="#121116"/>
<path d="M14.813 9.35596H14.0334C13.8178 9.35596 13.6436 9.53021 13.6436 9.74579C13.6436 9.96136 13.8178 10.1356 14.0334 10.1356H14.813C15.0286 10.1356 15.2029 9.96136 15.2029 9.74579C15.2029 9.53021 15.0286 9.35596 14.813 9.35596Z" fill="#121116"/>
<path d="M8.96588 12.4746H8.18622C7.97064 12.4746 7.79639 12.6489 7.79639 12.8644C7.79639 13.08 7.97064 13.2543 8.18622 13.2543H8.96588C9.18145 13.2543 9.35571 13.08 9.35571 12.8644C9.35571 12.6489 9.18145 12.4746 8.96588 12.4746Z" fill="#121116"/>
<path d="M8.96588 14.0339H8.18622C7.97064 14.0339 7.79639 14.2082 7.79639 14.4238C7.79639 14.6393 7.97064 14.8136 8.18622 14.8136H8.96588C9.18145 14.8136 9.35571 14.6393 9.35571 14.4238C9.35571 14.2082 9.18145 14.0339 8.96588 14.0339Z" fill="#121116"/>
<path d="M3.11871 17.1526H2.33905C2.12347 17.1526 1.94922 17.3268 1.94922 17.5424C1.94922 17.758 2.12347 17.9322 2.33905 17.9322H3.11871C3.33429 17.9322 3.50854 17.758 3.50854 17.5424C3.50854 17.3268 3.33429 17.1526 3.11871 17.1526Z" fill="#121116"/>
<path d="M3.11871 18.7119H2.33905C2.12347 18.7119 1.94922 18.8862 1.94922 19.1017C1.94922 19.3173 2.12347 19.4916 2.33905 19.4916H3.11871C3.33429 19.4916 3.50854 19.3173 3.50854 19.1017C3.50854 18.8862 3.33429 18.7119 3.11871 18.7119Z" fill="#121116"/>
<path d="M20.6612 4.67798H19.8815C19.666 4.67798 19.4917 4.85223 19.4917 5.06781C19.4917 5.28339 19.666 5.45764 19.8815 5.45764H20.6612C20.8768 5.45764 21.051 5.28339 21.051 5.06781C21.051 4.85223 20.8768 4.67798 20.6612 4.67798Z" fill="#121116"/>
</svg>
