<svg viewBox="0 0 24 22" fill="none" xmlns="http://www.w3.org/2000/svg">
<path d="M6.26293 14.3558C5.91988 14.0848 5.48993 13.9355 5.0523 13.9355C4.45754 13.9355 3.90369 14.1997 3.53273 14.6606C3.20837 15.0641 3.06151 15.5688 3.11939 16.0818C3.17736 16.5958 3.43379 17.0563 3.84137 17.3784C4.18442 17.6496 4.61422 17.7989 5.05178 17.7989C5.64698 17.7989 6.20091 17.5341 6.57157 17.0727C6.89564 16.67 7.04236 16.1658 6.98469 15.6531C6.92687 15.139 6.67059 14.6783 6.26293 14.3558ZM5.88097 16.5176C5.67925 16.7688 5.37696 16.9129 5.05178 16.9129C4.80938 16.9129 4.58078 16.8335 4.39087 16.6834C4.17002 16.5089 4.03121 16.26 3.99983 15.9825C3.96867 15.7061 4.04797 15.4338 4.22304 15.2161C4.42483 14.9654 4.72712 14.8215 5.0523 14.8215C5.29493 14.8215 5.5236 14.9009 5.71344 15.0509C5.93421 15.2255 6.07295 15.4745 6.10418 15.7522C6.13527 16.0283 6.05611 16.3 5.88097 16.5176Z" fill="#121116"/>
<path d="M14.0534 9.81826C14.3456 9.81826 14.6282 9.75424 14.894 9.62761C15.3637 9.40285 15.7166 9.00967 15.8874 8.52043C16.0573 8.03428 16.0267 7.51115 15.8015 7.04782C15.4793 6.38373 14.7913 5.95459 14.0487 5.95459C13.7559 5.95459 13.4727 6.01883 13.2071 6.14561C12.7375 6.36963 12.3845 6.76251 12.2134 7.25191C12.0432 7.73842 12.0737 8.26163 12.2993 8.72518C12.6224 9.38919 13.311 9.81826 14.0534 9.81826ZM13.0497 7.54438C13.1422 7.27967 13.3336 7.06687 13.5885 6.94526C13.7341 6.87585 13.8889 6.84063 14.0487 6.84063C14.4541 6.84063 14.8292 7.07374 15.0043 7.43488C15.1258 7.68474 15.1423 7.96643 15.0509 8.22825C14.9583 8.49311 14.7667 8.7062 14.5121 8.82803C14.3671 8.89722 14.2127 8.93222 14.0533 8.93222C13.6475 8.93222 13.2717 8.69874 13.0958 8.33746C12.9745 8.08796 12.9581 7.80635 13.0497 7.54438Z" fill="#121116"/>
<path d="M9.23221 6.68735C9.37472 6.71954 9.52055 6.73586 9.66564 6.73586C10.5777 6.73586 11.3569 6.11902 11.5607 5.23497C11.6752 4.73369 11.5871 4.21764 11.3129 3.78171C11.0363 3.34238 10.6042 3.03699 10.0963 2.92195C9.95323 2.88946 9.80681 2.87292 9.66106 2.87292C8.74962 2.87292 7.97123 3.49042 7.7681 4.37433C7.65262 4.87524 7.74012 5.39136 8.01442 5.82759C8.29116 6.26751 8.72377 6.5729 9.23221 6.68735ZM8.63162 4.5731C8.74171 4.09382 9.1651 3.75904 9.66106 3.75904C9.74073 3.75904 9.82114 3.76813 9.90022 3.78607C10.1773 3.84883 10.4126 4.01489 10.5629 4.25368C10.711 4.489 10.7586 4.76736 10.697 5.03672C10.5884 5.50787 10.1546 5.84981 9.66556 5.84981C9.58612 5.84981 9.506 5.8408 9.42714 5.82301C9.15003 5.76062 8.91471 5.59471 8.76446 5.35592C8.61663 5.12075 8.56945 4.84282 8.63162 4.5731Z" fill="#121116"/>
<path d="M5.71174 7.79261C6.11888 7.47002 6.37487 7.0092 6.43276 6.49507C6.49043 5.9825 6.34401 5.47834 6.01979 5.07482C5.64824 4.61415 5.09395 4.34996 4.49919 4.34996C4.062 4.34996 3.63249 4.49882 3.28937 4.76943C2.88216 5.09106 2.62602 5.55114 2.56791 6.0649C2.50987 6.57814 2.65666 7.08319 2.98147 7.48737C3.35272 7.94856 3.90709 8.21311 4.50251 8.21311C4.94007 8.21304 5.36958 8.06374 5.71174 7.79261ZM3.67199 6.93189C3.49656 6.71363 3.41718 6.44103 3.44849 6.16428C3.47979 5.88717 3.61846 5.63864 3.83849 5.46475C4.02833 5.31501 4.25686 5.23586 4.49926 5.23586C4.82474 5.23586 5.12769 5.37984 5.32963 5.63022C5.50426 5.84774 5.58341 6.11969 5.55233 6.39591C5.52109 6.67383 5.38228 6.92325 5.16158 7.0981C4.97263 7.24777 4.7447 7.32692 4.50258 7.32692C4.17674 7.327 3.87401 7.18287 3.67199 6.93189Z" fill="#121116"/>
<path d="M23.8305 3.45735C23.754 3.38011 23.6174 3.28804 23.4018 3.28804C23.1491 3.28804 22.4777 3.28804 18.4001 6.75779C18.3182 6.82749 18.2355 6.89815 18.1525 6.96933C17.4239 5.06884 16.1439 3.3745 14.4944 2.14895C12.6032 0.743761 10.3511 0.000590696 7.98201 0C7.98127 0 7.98075 0 7.98016 0C6.38129 0 4.43775 0.558651 2.90778 1.45821C1.03232 2.56074 -0.000369086 4.03527 9.89536e-08 5.60999C0.000590795 7.51115 1.07285 8.30637 1.93446 8.94528C2.63702 9.46635 3.1919 9.87785 3.1922 10.7797C3.19242 11.6815 2.63783 12.0926 1.93564 12.6131C1.07433 13.2517 0.00228905 14.0465 0.00287974 15.9478C0.00332277 17.5223 1.03667 18.9972 2.9125 20.1007C4.44359 21.0014 6.38816 21.5612 7.98732 21.5617C7.98843 21.5617 7.98939 21.5617 7.99042 21.5617C10.8926 21.5617 13.6208 20.4415 15.6727 18.4074C17.6985 16.3992 18.8252 13.7375 18.8548 10.901C19.5427 10.1183 20.2091 9.34024 20.8174 8.60711C21.8582 7.35291 22.6585 6.31801 23.1961 5.53128C23.9084 4.48922 24.2202 3.85008 23.8305 3.45735ZM15.049 17.7781C13.164 19.6468 10.6576 20.6756 7.9905 20.6756C7.98969 20.6756 7.9885 20.6756 7.98769 20.6756C5.12968 20.6748 0.889736 18.6892 0.888924 15.9475C0.888481 14.4924 1.65343 13.9253 2.46335 13.3249C3.2204 12.7635 4.07846 12.1274 4.07817 10.7794C4.07772 9.43165 3.21944 8.7951 2.46217 8.23357C1.65188 7.63261 0.886488 7.06502 0.886045 5.60977C0.885675 3.92621 2.43389 2.76461 3.35685 2.22198C4.73746 1.41029 6.552 0.885971 7.98016 0.885971C7.98068 0.885971 7.98127 0.885971 7.98171 0.885971C10.1592 0.886561 12.2286 1.56926 13.9661 2.86008C15.5685 4.0507 16.7917 5.72207 17.436 7.58927C15.5143 9.26714 13.4335 11.2017 11.8838 12.7564C9.30989 13.0895 8.95924 14.8049 8.70288 16.0651C8.48461 17.1381 8.34292 17.6569 7.51469 17.7233C7.31061 17.7397 7.1444 17.8937 7.11257 18.096C7.08068 18.2981 7.19151 18.4959 7.38068 18.5742C7.43391 18.5962 8.70066 19.1138 10.1807 19.1139C10.1809 19.1139 10.181 19.1139 10.1812 19.1139C11.2125 19.1139 12.0972 18.8639 12.8107 18.3709C13.6898 17.7633 14.2858 16.8001 14.5854 15.5084C15.5979 14.484 16.7549 13.2487 17.8989 11.9763C17.6356 14.167 16.647 16.194 15.049 17.7781ZM13.6953 15.4246C13.2258 17.285 12.0446 18.228 10.1811 18.2279C10.1811 18.2279 10.1808 18.2279 10.1807 18.2279C9.68927 18.2279 9.2187 18.1609 8.82308 18.0773C9.29564 17.5954 9.44324 16.8701 9.57105 16.2419C9.81449 15.0451 10.0447 13.9125 11.9282 13.6435L13.6953 15.4246ZM19.8131 8.42776C18.0569 10.5201 15.9312 12.8697 14.1812 14.6562L13.9103 14.3832L12.715 13.1784C14.3016 11.599 16.337 9.71577 18.236 8.06766C18.4573 7.87553 18.6773 7.68585 18.8941 7.50096C21.0979 5.62144 22.2529 4.80347 22.842 4.4475C22.4902 5.04019 21.6797 6.20394 19.8131 8.42776Z" fill="#121116"/>
</svg>
