<svg viewBox="0 0 23 19" fill="none" xmlns="http://www.w3.org/2000/svg">
<path d="M22.7386 17.4142L20.5609 15.6174C20.5333 15.5954 20.5042 15.5753 20.4738 15.5575C20.4799 15.523 20.4834 15.4881 20.4843 15.4531V6.46874C20.4843 6.27815 20.4086 6.09525 20.2739 5.96049C20.1391 5.82572 19.9562 5.75 19.7656 5.75H19.0468V1.07813C19.0465 0.792241 18.9328 0.518209 18.7308 0.316056C18.5286 0.114067 18.2546 0.000320356 17.9687 0H5.03125C4.74536 0.000320849 4.47133 0.114067 4.26917 0.316056C4.06718 0.518205 3.95344 0.792237 3.95312 1.07813V5.75H3.23437C3.04377 5.75 2.86087 5.82572 2.72611 5.96049C2.59135 6.09525 2.51562 6.27815 2.51562 6.46874V15.4531C2.51658 15.4881 2.52011 15.523 2.52621 15.5575C2.49573 15.5753 2.46669 15.5954 2.43909 15.6174L0.261369 17.4142C0.108153 17.5407 0.0141405 17.7248 0.00146585 17.923C-0.0112088 18.1211 0.0587399 18.3157 0.194628 18.4605C0.330517 18.6053 0.520151 18.6875 0.718781 18.6875H22.2812C22.4798 18.6875 22.6695 18.6053 22.8054 18.4605C22.9413 18.3157 23.0112 18.1211 22.9985 17.923C22.9859 17.7249 22.8918 17.5407 22.7386 17.4142ZM4.67174 1.07813C4.6719 0.879678 4.83265 0.71892 5.03111 0.71876H17.9686C18.167 0.718921 18.3278 0.879678 18.3279 1.07813V2.875H4.67174V1.07813ZM4.67174 3.59375H11.1405V8.98436H10.6014V7.54687C10.6011 7.34344 10.5433 7.14433 10.4346 6.97236C10.3259 6.80053 10.171 6.66272 9.98725 6.57528C9.89195 6.80262 9.75831 7.01216 9.59226 7.19439C9.76071 7.22744 9.88232 7.37504 9.88264 7.54687V8.98436H6.10922V7.54687C6.10954 7.37504 6.23115 7.22744 6.3996 7.19439C6.23355 7.01214 6.09991 6.80261 6.00445 6.57528C5.82091 6.66272 5.66593 6.80053 5.55731 6.97236C5.44854 7.14435 5.39078 7.34345 5.39046 7.54687V8.98436H4.67171L4.67174 3.59375ZM3.23424 6.46874H3.95299V14.375C3.95299 14.5734 4.11391 14.7343 4.31236 14.7343C4.51082 14.7343 4.67174 14.5734 4.67174 14.375V9.70311H11.1405V14.5545C11.1405 14.7529 11.3014 14.9138 11.4998 14.9138C11.6983 14.9138 11.8592 14.7529 11.8592 14.5545V3.59334H18.3279V14.3746C18.3279 14.573 18.4889 14.7339 18.6873 14.7339C18.8858 14.7339 19.0467 14.573 19.0467 14.3746V6.46833H19.7654V15.4527H3.23424V6.46874ZM0.718624 17.9687L2.89635 16.1718H20.1032L22.2811 17.9687H0.718624Z" fill="#121116"/>
<path d="M17.25 1.4375H16.5312C16.3328 1.4375 16.1719 1.59842 16.1719 1.79687C16.1719 1.99533 16.3328 2.15625 16.5312 2.15625H17.25C17.4485 2.15625 17.6094 1.99533 17.6094 1.79687C17.6094 1.59842 17.4485 1.4375 17.25 1.4375Z" fill="#121116"/>
<path d="M15.0937 1.4375H14.375C14.1765 1.4375 14.0156 1.59842 14.0156 1.79687C14.0156 1.99533 14.1765 2.15625 14.375 2.15625H15.0937C15.2922 2.15625 15.4531 1.99533 15.4531 1.79687C15.4531 1.59842 15.2922 1.4375 15.0937 1.4375Z" fill="#121116"/>
<path d="M16.7109 4.3125H13.2969C13.1063 4.3125 12.9234 4.38823 12.7886 4.52299C12.6539 4.65775 12.5781 4.84065 12.5781 5.03125V5.75C12.5781 5.94059 12.6539 6.12349 12.7886 6.25825C12.9234 6.39302 13.1063 6.46874 13.2969 6.46874H16.7109C16.9015 6.46874 17.0844 6.39302 17.2192 6.25825C17.3539 6.12349 17.4297 5.94059 17.4297 5.75V5.03125C17.4297 4.84065 17.3539 4.65775 17.2192 4.52299C17.0844 4.38823 16.9015 4.3125 16.7109 4.3125ZM16.7109 5.75H13.2969V5.03125H16.7109V5.75Z" fill="#121116"/>
<path d="M17.0701 7.1875H12.9375C12.739 7.1875 12.5781 7.34842 12.5781 7.54687C12.5781 7.74533 12.739 7.90625 12.9375 7.90625H17.0701C17.2686 7.90625 17.4295 7.74533 17.4295 7.54687C17.4295 7.34842 17.2686 7.1875 17.0701 7.1875Z" fill="#121116"/>
<path d="M17.0701 8.625H12.9375C12.739 8.625 12.5781 8.78592 12.5781 8.98437C12.5781 9.18283 12.739 9.34375 12.9375 9.34375H17.0701C17.2686 9.34375 17.4295 9.18283 17.4295 8.98437C17.4295 8.78592 17.2686 8.625 17.0701 8.625Z" fill="#121116"/>
<path d="M16.7109 10.0625H13.2969C13.1063 10.0625 12.9234 10.1382 12.7886 10.273C12.6539 10.4078 12.5781 10.5907 12.5781 10.7812V13.8359C12.5781 14.0265 12.6539 14.2094 12.7886 14.3442C12.9234 14.4789 13.1063 14.5547 13.2969 14.5547H16.7109C16.9015 14.5547 17.0844 14.4789 17.2192 14.3442C17.3539 14.2094 17.4297 14.0265 17.4297 13.8359V10.7812C17.4297 10.5907 17.3539 10.4078 17.2192 10.273C17.0844 10.1382 16.9015 10.0625 16.7109 10.0625ZM16.7109 13.8359H13.2969V10.7812H16.7109V13.8359Z" fill="#121116"/>
<path d="M7.99609 7.18749C8.37728 7.18749 8.74293 7.03604 9.0126 6.76651C9.28214 6.49682 9.43359 6.13118 9.43359 5.75C9.43359 5.36881 9.28214 5.00316 9.0126 4.73348C8.74291 4.46395 8.37727 4.3125 7.99609 4.3125C7.61491 4.3125 7.24925 4.46395 6.97957 4.73348C6.71004 5.00317 6.55859 5.36881 6.55859 5.75C6.55908 6.13119 6.71068 6.49651 6.98007 6.76602C7.2496 7.03539 7.61491 7.187 7.99609 7.18749ZM7.99609 5.03125C8.18669 5.03125 8.36958 5.10698 8.50435 5.24174C8.63911 5.3765 8.71484 5.5594 8.71484 5.75C8.71484 5.94059 8.63911 6.12349 8.50435 6.25825C8.36958 6.39302 8.18669 6.46874 7.99609 6.46874C7.80549 6.46874 7.6226 6.39302 7.48783 6.25825C7.35307 6.12349 7.27734 5.94059 7.27734 5.75C7.27734 5.5594 7.35307 5.3765 7.48783 5.24174C7.6226 5.10698 7.80549 5.03125 7.99609 5.03125Z" fill="#121116"/>
<path d="M10.0625 10.9612C9.86403 10.9612 9.70311 11.1221 9.70311 11.3206V13.6565H8.98437V11.8596C8.98437 11.6612 8.82345 11.5002 8.62499 11.5002C8.42653 11.5002 8.26562 11.6612 8.26562 11.8596V13.6565H7.54687V10.7815C7.54687 10.583 7.38595 10.4221 7.1875 10.4221C6.98904 10.4221 6.82812 10.583 6.82812 10.7815V13.6565H6.10937V11.6799C6.10937 11.4815 5.94846 11.3206 5.75 11.3206C5.55154 11.3206 5.39062 11.4815 5.39062 11.6799V14.0159C5.39062 14.2143 5.55154 14.3752 5.75 14.3752H10.0625C10.2609 14.3752 10.4219 14.2143 10.4219 14.0159V11.3206C10.4219 11.1221 10.2609 10.9612 10.0625 10.9612Z" fill="#121116"/>
</svg>
