<svg viewBox="0 0 23 24" fill="none" xmlns="http://www.w3.org/2000/svg">
<path d="M4.4616 0.0696039C3.35834 0.254957 2.39525 0.761418 1.58142 1.58433C0.487464 2.68294 -0.0597461 4.06633 0.0126719 5.53588C0.130264 7.91869 1.85735 9.9578 4.22223 10.505C4.62926 10.6 4.71053 10.6 11.0768 10.6179C15.4263 10.627 17.6736 10.6179 17.9947 10.5863C19.3015 10.4505 20.3188 9.95338 21.2728 8.98121C21.838 8.40699 22.1682 7.91427 22.4257 7.26763C22.8597 6.17786 22.9366 5.08833 22.6518 4.00323C22.1137 1.96854 20.3593 0.376973 18.3111 0.0696039C17.7094 -0.0254011 5.00881 -0.0209769 4.4616 0.0696039ZM18.6499 1.10045C20.1828 1.52099 21.2181 2.52483 21.6838 4.0484C21.8058 4.43261 21.8105 4.50503 21.8105 5.31444C21.8105 6.11918 21.8014 6.19603 21.6885 6.57139C21.2409 8.01835 20.2327 9.02662 18.7766 9.48325L18.3787 9.60992H11.4156H4.45276L4.04573 9.48325C3.15948 9.20731 2.40899 8.71017 1.8981 8.0591C0.229693 5.92917 0.876099 2.67828 3.20931 1.47558C3.75186 1.19988 4.27183 1.04154 4.88214 0.978205C4.96807 0.969123 8.00194 0.964699 11.6191 0.969123L18.1977 0.973781L18.6499 1.10045Z" fill="#121116"/>
<path d="M16.9091 2.19464C15.7563 2.45241 14.6891 3.52844 14.445 4.68596C14.0834 6.39512 15.2498 8.12686 17.0041 8.48406C18.5687 8.80051 20.2143 7.70633 20.6439 6.06051C20.7433 5.68072 20.7433 5.00241 20.6485 4.61354C20.4271 3.76362 19.8212 2.9768 19.0344 2.52017C18.4555 2.18999 17.5558 2.04981 16.9091 2.19464ZM17.9491 3.12141C18.3561 3.18474 18.8532 3.43786 19.1427 3.73172C19.5541 4.13875 19.7576 4.67222 19.7576 5.33679C19.7576 6.67059 18.8444 7.57942 17.5194 7.56592C16.4299 7.55683 15.6158 6.90135 15.3944 5.85676C15.3085 5.45881 15.3085 5.21478 15.3944 4.81683C15.4894 4.36928 15.6657 4.04351 15.9777 3.72706C16.2897 3.41969 16.6197 3.23877 17.0493 3.14842C17.4065 3.06715 17.5739 3.06273 17.9491 3.12141Z" fill="#121116"/>
<path d="M4.90473 12.5532C3.80146 12.6843 3.00114 12.9873 2.20081 13.5796C1.48641 14.1087 0.957368 14.7372 0.564075 15.5328C0.0531905 16.5637 -0.109575 17.6127 0.0713532 18.6752C0.265787 19.7964 0.754085 20.7369 1.58142 21.5689C2.42249 22.4188 3.45334 22.9479 4.58362 23.1018C4.81881 23.1379 7.05235 23.1514 11.4291 23.1514C18.4825 23.1514 18.3198 23.1558 19.1019 22.9027C20.6802 22.3872 22.0184 21.0715 22.5384 19.516C22.9634 18.2456 22.9047 16.9886 22.3575 15.727C22.1179 15.1754 21.7334 14.6284 21.2316 14.1264C20.3274 13.2175 19.2964 12.7157 18.062 12.5711C17.6913 12.5306 5.26193 12.5125 4.90473 12.5532ZM18.6951 13.6474C19.4593 13.86 20.1374 14.2668 20.6665 14.814C21.1594 15.334 21.4668 15.863 21.6882 16.5818C21.8012 16.9572 21.8103 17.034 21.8103 17.8388C21.8103 18.6482 21.8056 18.7204 21.6836 19.1048C21.1909 20.719 20.0559 21.7545 18.3784 22.1205C17.9805 22.2065 4.85024 22.2065 4.45253 22.1205C2.47232 21.6865 1.20629 20.2894 0.989269 18.2954C0.862595 17.1561 1.20629 15.9624 1.91627 15.0806C2.53566 14.3029 3.50317 13.7333 4.48 13.5703C4.61995 13.548 7.64939 13.5342 11.5288 13.5389L18.3335 13.5435L18.6951 13.6474Z" fill="#121116"/>
<path d="M4.67863 14.6692C3.36742 14.9677 2.33657 16.0528 2.12398 17.364C1.83454 19.1139 3.26334 20.8908 5.0675 21.0128C6.47371 21.1078 7.82567 20.1629 8.29138 18.7611C8.93336 16.8394 7.43238 14.7055 5.37953 14.624C5.11291 14.6149 4.84605 14.6331 4.67863 14.6692ZM5.62821 15.6006C6.7224 15.7589 7.46381 16.6405 7.47289 17.7934C7.47732 18.4717 7.26938 19.0096 6.83091 19.4436C6.54147 19.7331 6.18893 19.9184 5.75023 20.0132C5.37044 20.09 5.1625 20.09 4.78272 20.0132C3.71112 19.7827 3.05097 18.9372 3.06448 17.7932C3.0689 17.2958 3.18207 16.9025 3.4261 16.5227C3.79238 15.9531 4.45695 15.6004 5.22118 15.5596C5.27101 15.5598 5.45637 15.578 5.62821 15.6006Z" fill="#121116"/>
</svg>
